HIERARCHY
ROOT Hips
{
	OFFSET 0.00000 0.00000 0.00000
	CHANNELS 6 Xposition Yposition Zposition Zrotation Yrotation Xrotation 
	JOINT LHipJoint
	{
		OFFSET 0 0 0
		CHANNELS 3 Zrotation Yrotation Xrotation
		JOINT LeftUpLeg
		{
			OFFSET 1.58895 -1.83665 0.71753
			CHANNELS 3 Zrotation Yrotation Xrotation
			JOINT LeftLeg
			{
				OFFSET 2.50528 -6.88321 0.00000
				CHANNELS 3 Zrotation Yrotation Xrotation
				JOINT LeftFoot
				{
					OFFSET 2.63244 -7.23257 0.00000
					CHANNELS 3 Zrotation Yrotation Xrotation
					JOINT LeftToeBase
					{
						OFFSET 0.23691 -0.65090 1.72750
						CHANNELS 3 Zrotation Yrotation Xrotation
						End Site
						{
							OFFSET 0.00000 -0.00000 0.92561
						}
					}
				}
			}
		}
	}
	JOINT RHipJoint
	{
		OFFSET 0 0 0
		CHANNELS 3 Zrotation Yrotation Xrotation
		JOINT RightUpLeg
		{
			OFFSET -1.51435 -1.83665 0.71753
			CHANNELS 3 Zrotation Yrotation Xrotation
			JOINT RightLeg
			{
				OFFSET -2.54551 -6.99375 0.00000
				CHANNELS 3 Zrotation Yrotation Xrotation
				JOINT RightFoot
				{
					OFFSET -2.66027 -7.30903 0.00000
					CHANNELS 3 Zrotation Yrotation Xrotation
					JOINT RightToeBase
					{
						OFFSET -0.22981 -0.63138 2.03959
						CHANNELS 3 Zrotation Yrotation Xrotation
						End Site
						{
							OFFSET -0.00000 -0.00000 1.07060
						}
					}
				}
			}
		}
	}
	JOINT LowerBack
	{
		OFFSET 0 0 0
		CHANNELS 3 Zrotation Yrotation Xrotation
		JOINT Spine
		{
			OFFSET -0.02651 1.86275 -0.11152
			CHANNELS 3 Zrotation Yrotation Xrotation
			JOINT Spine1
			{
				OFFSET 0.01019 1.86224 0.04087
				CHANNELS 3 Zrotation Yrotation Xrotation
				JOINT Neck
				{
					OFFSET 0 0 0
					CHANNELS 3 Zrotation Yrotation Xrotation
					JOINT Neck1
					{
						OFFSET -0.01926 1.80512 0.08867
						CHANNELS 3 Zrotation Yrotation Xrotation
						JOINT Head
						{
							OFFSET 0.05516 1.76451 -0.38475
							CHANNELS 3 Zrotation Yrotation Xrotation
							End Site
							{
								OFFSET 0.01592 1.82587 -0.14001
							}
						}
					}
				}
				JOINT LeftShoulder
				{
					OFFSET 0 0 0
					CHANNELS 3 Zrotation Yrotation Xrotation
					JOINT LeftArm
					{
						OFFSET 3.47116 1.51376 0.14491
						CHANNELS 3 Zrotation Yrotation Xrotation
						JOINT LeftForeArm
						{
							OFFSET 4.78095 -0.00000 0.00000
							CHANNELS 3 Zrotation Yrotation Xrotation
							JOINT LeftHand
							{
								OFFSET 3.58615 -0.00000 -0.00000
								CHANNELS 3 Zrotation Yrotation Xrotation
								JOINT LeftFingerBase
								{
									OFFSET 0 0 0
									CHANNELS 3 Zrotation Yrotation Xrotation
									JOINT LeftHandIndex1
									{
										OFFSET 0.65981 -0.00000 0.00000
										CHANNELS 3 Zrotation Yrotation Xrotation
										End Site
										{
											OFFSET 0.53196 -0.00000 0.00000
										}
									}
								}
								JOINT LThumb
								{
									OFFSET 0 0 0
									CHANNELS 3 Zrotation Yrotation Xrotation
									End Site
									{
										OFFSET 0.54008 -0.00000 0.54008
									}
								}
							}
						}
					}
				}
				JOINT RightShoulder
				{
					OFFSET 0 0 0
					CHANNELS 3 Zrotation Yrotation Xrotation
					JOINT RightArm
					{
						OFFSET -3.31725 1.61216 0.35156
						CHANNELS 3 Zrotation Yrotation Xrotation
						JOINT RightForeArm
						{
							OFFSET -4.48913 -0.00000 0.00000
							CHANNELS 3 Zrotation Yrotation Xrotation
							JOINT RightHand
							{
								OFFSET -3.70510 -0.00000 0.00000
								CHANNELS 3 Zrotation Yrotation Xrotation
								JOINT RightFingerBase
								{
									OFFSET 0 0 0
									CHANNELS 3 Zrotation Yrotation Xrotation
									JOINT RightHandIndex1
									{
										OFFSET -0.44914 -0.00000 0.00000
										CHANNELS 3 Zrotation Yrotation Xrotation
										End Site
										{
											OFFSET -0.36211 -0.00000 0.00000
										}
									}
								}
								JOINT RThumb
								{
									OFFSET 0 0 0
									CHANNELS 3 Zrotation Yrotation Xrotation
									End Site
									{
										OFFSET -0.36763 -0.00000 0.36763
									}
								}
							}
						}
					}
				}
			}
		}
	}
}
MOTION
Frames: 13
Frame Time: .0083333
-0.4505 18.1824 7.8491 -11.8084 -25.6461 -4.5036 0.0000 0.0000 0.0000 -10.8608 0.5864 17.0193 1.6831 8.1721 23.2381 5.1563 9.5151 -46.6640 6.9455 -15.2858 -48.6678 0.0000 0.0000 0.0000 26.2301 12.0954 25.5823 0.0000 0.0000 0.0000 -0.8273 -0.5903 -17.4109 -0.0588 1.5653 -4.3056 -2.1369 -1.0895 -5.4653 1.7837 -1.3830 -4.0680 2.9724 -0.6378 -1.0318 -12.4768 -10.5328 -6.3500 6.5841 -13.6027 8.3291 3.0319 -6.7862 4.8312 -0.0000 -0.0000 0.0000 0.6816 -3.2657 -44.7214 44.0125 -50.2755 -21.4766 -0.0000 0.0000 -66.2837 15.8840 -19.1062 -5.3212 -7.1250 0.0000 -0.0000 -8.0083 10.3247 6.5089 -0.0000 -0.0000 0.0000 11.3712 -13.7387 -50.8604 -44.5264 50.5344 -21.8725 0.0000 -0.0000 -60.5159 -9.6122 -28.6322 4.6396 7.1250 -0.0000 -0.0000 23.2431 -57.4030 -7.3255
-0.4589 18.1843 7.8259 -11.7639 -25.8955 -4.4086 0.0000 0.0000 0.0000 -10.8594 0.7012 16.8998 1.6731 8.1490 23.1676 5.1710 9.4918 -46.7121 6.9211 -15.2651 -48.5751 0.0000 0.0000 0.0000 26.2506 12.3568 25.4884 0.0000 -0.0000 0.0000 -0.8312 -0.5369 -17.4310 -0.0463 1.3885 -3.8183 -2.2745 -1.1032 -5.4619 1.7997 -1.3961 -4.0818 3.0661 -0.6412 -1.0441 -12.2470 -10.3059 -6.4261 6.5282 -13.3091 8.4387 3.0054 -6.6382 4.8307 -0.0000 -0.0000 0.0000 0.6445 -3.2630 -44.6866 44.0075 -50.2729 -21.4727 -0.0000 0.0000 -66.3252 15.7563 -18.9333 -5.2307 -7.1250 0.0000 -0.0000 -8.0849 10.5152 6.5408 -0.0000 -0.0000 0.0000 11.4428 -13.6745 -50.9629 -44.4107 50.4765 -21.7833 0.0000 -0.0000 -60.5119 -9.5941 -28.7723 4.6514 7.1250 -0.0000 -0.0000 23.3625 -57.5269 -7.4369
-0.4692 18.1871 7.8036 -11.8508 -26.2004 -4.2421 0.0000 0.0000 0.0000 -10.6885 0.8899 16.7443 1.6666 8.1340 23.1218 5.1802 9.4526 -46.7315 6.9182 -15.2626 -48.5642 0.0000 0.0000 0.0000 26.4181 12.6627 25.3932 0.0000 -0.0000 0.0000 -0.8302 -0.5456 -17.4241 -0.0440 1.3539 -3.7232 -2.2624 -1.0868 -5.4714 1.8294 -1.3753 -4.1096 3.0912 -0.6302 -1.0686 -11.8954 -10.0082 -6.6185 6.3531 -12.9137 8.7298 2.9248 -6.4419 4.8808 0.0000 0.0000 0.0000 0.5967 -3.2221 -44.6505 44.0879 -50.3137 -21.5345 -0.0000 0.0000 -66.5304 15.7988 -19.1065 -5.2914 -7.1250 0.0000 -0.0000 -8.0635 10.3341 6.5532 0.0000 0.0000 0.0000 11.5936 -13.6875 -50.9709 -44.3462 50.4441 -21.7335 0.0000 -0.0000 -60.3944 -9.7295 -28.8553 4.7304 7.1250 -0.0000 -0.0000 23.2864 -57.6313 -7.4704
-0.4779 18.1893 7.7836 -12.0255 -26.5115 -4.0990 0.0000 0.0000 0.0000 -10.4524 1.0671 16.6613 1.6631 8.1260 23.0974 5.1926 9.4595 -46.7836 6.9289 -15.2717 -48.6048 0.0000 0.0000 0.0000 26.6846 12.9397 25.3556 0.0000 -0.0000 0.0000 -0.8282 -0.6370 -17.4386 -0.0598 1.5779 -4.3405 -2.1140 -1.0509 -5.4569 1.8568 -1.3341 -4.1072 3.0381 -0.6123 -1.0793 -11.4536 -9.6233 -6.9727 6.1551 -12.4000 9.2327 2.8231 -6.1843 5.0078 -0.0000 -0.0000 0.0000 0.5950 -3.1378 -44.6584 44.1357 -50.3380 -21.5713 -0.0000 0.0000 -66.8311 15.9251 -19.2620 -5.3773 -7.1250 0.0000 -0.0000 -7.9874 10.1613 6.5184 -0.0000 -0.0000 0.0000 11.8026 -13.7752 -50.9303 -44.3259 50.4339 -21.7178 0.0000 -0.0000 -60.2678 -9.6450 -28.9979 4.7097 7.1250 -0.0000 -0.0000 23.4760 -57.7431 -7.6000
-0.4844 18.1905 7.7652 -12.1186 -26.7338 -4.0297 0.0000 0.0000 0.0000 -10.3025 1.2032 16.6002 1.6627 8.1251 23.0945 5.2039 9.4355 -46.8177 6.9356 -15.2774 -48.6304 0.0000 0.0000 0.0000 26.8562 13.1243 25.3293 0.0000 0.0000 -0.0000 -0.8279 -0.7224 -17.4682 -0.0710 1.7185 -4.7284 -2.0218 -1.0143 -5.3725 1.8565 -1.2904 -4.1245 2.9895 -0.5913 -1.1486 -10.8896 -9.1164 -7.4203 5.9361 -11.7332 9.9029 2.7045 -5.8481 5.1841 -0.0000 -0.0000 0.0000 0.6446 -3.0767 -44.5933 44.0381 -50.2885 -21.4962 -0.0000 0.0000 -67.1263 15.9517 -19.2992 -5.3966 -7.1250 0.0000 -0.0000 -7.9717 10.1203 6.5119 -0.0000 -0.0000 0.0000 12.0031 -13.9833 -50.8285 -44.3647 50.4534 -21.7478 0.0000 -0.0000 -60.1123 -9.6088 -29.1228 4.7101 7.1250 -0.0000 -0.0000 23.6047 -57.8491 -7.7060
-0.4913 18.1924 7.7477 -12.0806 -26.8952 -3.9948 0.0000 0.0000 0.0000 -10.3008 1.2643 16.5309 1.6628 8.1254 23.0955 5.2270 9.3202 -46.8583 6.9132 -15.2584 -48.5454 0.0000 0.0000 0.0000 26.8817 13.2742 25.2655 0.0000 0.0000 0.0000 -0.8332 -0.7537 -17.5357 -0.0656 1.6522 -4.5453 -2.0278 -0.9713 -5.2348 1.8041 -1.2354 -4.2118 2.9448 -0.5611 -1.3201 -10.2149 -8.5019 -7.9136 5.6816 -10.9375 10.7364 2.5667 -5.4465 5.4058 -0.0000 -0.0000 0.0000 0.7148 -3.2461 -44.6341 43.8331 -50.1838 -21.3386 -0.0000 0.0000 -67.0968 15.8228 -19.3578 -5.3665 -7.1250 0.0000 -0.0000 -8.0574 10.0755 6.5908 -0.0000 -0.0000 0.0000 12.1880 -14.3258 -50.5843 -44.3724 50.4573 -21.7537 0.0000 -0.0000 -59.9918 -9.6766 -29.0365 4.7311 7.1250 -0.0000 -0.0000 23.4726 -57.7850 -7.6229
-0.4995 18.1953 7.7298 -12.0890 -27.0369 -3.9073 0.0000 0.0000 0.0000 -10.2116 1.3475 16.4148 1.6599 8.1186 23.0749 5.2217 9.2264 -46.7964 6.9323 -15.2746 -48.6178 0.0000 0.0000 0.0000 26.9552 13.4139 25.1607 0.0000 0.0000 -0.0000 -0.8417 -0.8123 -17.6468 -0.0662 1.6602 -4.5674 -1.9911 -0.9295 -5.1215 1.7687 -1.1835 -4.3232 2.8930 -0.5329 -1.5030 -9.5795 -7.7667 -8.2475 5.6002 -10.0131 11.4713 2.5098 -4.9746 5.5791 -0.0000 -0.0000 0.0000 0.6803 -3.6010 -44.9659 43.6899 -50.1103 -21.2287 -0.0000 0.0000 -66.6283 15.5981 -19.2995 -5.2716 -7.1250 0.0000 -0.0000 -8.2007 10.1606 6.6962 -0.0000 -0.0000 0.0000 12.3203 -14.6396 -50.4386 -44.2983 50.4200 -21.6965 0.0000 -0.0000 -60.0261 -9.5274 -29.0280 4.6558 7.1250 -0.0000 -0.0000 23.6168 -57.7455 -7.6504
-0.5078 18.1962 7.7119 -12.1095 -27.1496 -3.8659 0.0000 0.0000 0.0000 -10.0373 1.5387 16.2996 1.6558 8.1090 23.0456 5.1716 9.1719 -46.5733 7.0119 -15.3419 -48.9192 0.0000 0.0000 0.0000 27.0448 13.4997 25.1011 0.0000 0.0000 -0.0000 -0.8489 -0.8797 -17.7481 -0.0733 1.7466 -4.8059 -2.0618 -0.9292 -5.4310 1.8269 -1.1751 -4.0798 2.9853 -0.5347 -1.0776 -8.8501 -6.9457 -8.6929 5.5601 -8.9654 11.8607 2.4636 -4.4288 5.6581 -0.0000 -0.0000 0.0000 0.5266 -3.7765 -45.6436 43.5648 -50.0457 -21.1328 -0.0000 0.0000 -66.2435 15.5191 -19.2405 -5.2284 -7.1250 0.0000 -0.0000 -8.2498 10.2295 6.7256 -0.0000 -0.0000 0.0000 12.4245 -14.7042 -50.8023 -44.1880 50.3644 -21.6116 0.0000 -0.0000 -59.9789 -9.4929 -29.0915 4.6480 7.1250 -0.0000 -0.0000 23.6985 -57.7958 -7.7081
-0.5154 18.1967 7.6944 -12.0284 -27.1786 -3.9221 0.0000 0.0000 0.0000 -9.9384 1.7369 16.2036 1.6556 8.1085 23.0442 5.1141 9.0420 -46.2865 7.0783 -15.3975 -49.1700 0.0000 0.0000 0.0000 27.0169 13.4928 25.0720 0.0000 -0.0000 0.0000 -0.8507 -0.9526 -17.7955 -0.0884 1.9175 -5.2777 -2.1499 -0.9180 -5.4593 1.8130 -1.1555 -3.9641 3.0197 -0.5262 -0.9425 -7.8626 -6.0549 -9.1419 5.3401 -7.8520 12.4535 2.3236 -3.8510 5.7872 -0.0000 -0.0000 0.0000 0.4443 -3.7622 -45.8045 43.4384 -49.9801 -21.0359 -0.0000 0.0000 -66.2043 15.6243 -19.3118 -5.2840 -7.1250 0.0000 -0.0000 -8.1843 10.1451 6.6852 -0.0000 -0.0000 0.0000 12.5622 -14.9927 -50.8258 -44.1470 50.3437 -21.5800 0.0000 -0.0000 -59.9009 -9.6714 -28.9495 4.7156 7.1250 -0.0000 -0.0000 23.4139 -57.7048 -7.5565
-0.5218 18.1983 7.6763 -12.0070 -27.1453 -3.9282 0.0000 0.0000 0.0000 -9.7594 1.9077 16.0612 1.6587 8.1157 23.0660 5.0859 8.7448 -46.0433 7.0865 -15.4043 -49.2007 0.0000 0.0000 0.0000 27.0282 13.4371 24.9911 0.0000 0.0000 -0.0000 -0.8493 -1.0550 -17.8238 -0.1093 2.1315 -5.8691 -2.1009 -0.8850 -5.3339 1.7871 -1.1151 -3.9372 2.9688 -0.5067 -0.9884 -6.6854 -5.1908 -9.9143 4.9047 -6.7787 13.4786 2.0703 -3.2918 6.1106 -0.0000 -0.0000 0.0000 0.3316 -3.7561 -45.8527 43.3545 -49.9364 -20.9716 -0.0000 0.0000 -66.2297 15.7074 -19.3215 -5.3160 -7.1250 0.0000 -0.0000 -8.1308 10.1257 6.6438 -0.0000 -0.0000 0.0000 12.6792 -15.4182 -50.6883 -44.0598 50.2995 -21.5129 0.0000 -0.0000 -59.8975 -9.6745 -28.8807 4.7070 7.1250 -0.0000 -0.0000 23.3603 -57.6428 -7.5024
-0.5278 18.1993 7.6570 -12.1027 -27.0815 -3.8640 0.0000 0.0000 0.0000 -9.4184 2.1062 15.8601 1.6632 8.1262 23.0981 5.0487 8.3926 -45.7402 7.0944 -15.4109 -49.2306 0.0000 0.0000 0.0000 27.1465 13.3548 24.8701 0.0000 0.0000 -0.0000 -0.8528 -1.0999 -17.8777 -0.1212 2.2441 -6.1809 -1.9080 -0.8246 -5.1869 1.7814 -1.0440 -3.9466 2.8596 -0.4734 -1.0874 -5.4335 -4.4132 -10.8075 4.3541 -5.8363 14.7160 1.7561 -2.7973 6.5447 0.0000 -0.0000 0.0000 0.1417 -3.6125 -45.6097 43.4035 -49.9619 -21.0092 -0.0000 0.0000 -66.5650 15.9428 -19.2522 -5.3809 -7.1250 0.0000 -0.0000 -7.9757 10.1693 6.5073 0.0000 -0.0000 0.0000 12.7675 -15.9334 -50.4705 -43.9447 50.2409 -21.4243 0.0000 -0.0000 -59.9700 -9.5574 -28.9936 4.6657 7.1250 -0.0000 -0.0000 23.5612 -57.7206 -7.6167
-0.5331 18.1991 7.6375 -12.1006 -26.9535 -3.8653 0.0000 0.0000 0.0000 -9.1672 2.2860 15.6515 1.6713 8.1450 23.1552 4.9646 8.1425 -45.2892 7.1519 -15.4585 -49.4466 0.0000 0.0000 0.0000 27.1606 13.2063 24.7623 0.0000 0.0000 -0.0000 -0.8606 -1.0891 -17.9529 -0.1349 2.3676 -6.5227 -1.7661 -0.7542 -4.9783 1.7303 -0.9579 -3.9963 2.7339 -0.4309 -1.2628 -4.3792 -3.5338 -11.0226 4.2582 -4.8221 15.4207 1.6448 -2.2512 6.7252 0.0000 0.0000 0.0000 -0.0472 -3.3878 -45.0521 43.4344 -49.9780 -21.0329 -0.0000 0.0000 -67.0759 16.4150 -19.3193 -5.5667 -7.1250 0.0000 -0.0000 -7.6724 10.0459 6.2744 0.0000 0.0000 0.0000 12.9249 -16.4283 -50.3165 -43.8965 50.2163 -21.3874 0.0000 -0.0000 -59.9209 -9.4977 -28.9118 4.6243 7.1250 -0.0000 -0.0000 23.5612 -57.6334 -7.5665
-0.5383 18.1992 7.6205 -11.9447 -26.7448 -3.9346 0.0000 0.0000 0.0000 -9.1097 2.3690 15.4559 1.6817 8.1690 23.2285 4.8740 7.9478 -44.8317 7.2073 -15.5040 -49.6539 0.0000 0.0000 0.0000 27.0104 12.9854 24.6562 0.0000 -0.0000 0.0000 -0.8705 -1.0820 -18.0502 -0.1487 2.4848 -6.8476 -1.7319 -0.6889 -4.7955 1.6604 -0.8741 -4.0325 2.6485 -0.3882 -1.4083 -3.5572 -2.5459 -10.7368 4.5392 -3.6828 15.6598 1.7110 -1.6328 6.6885 0.0000 0.0000 0.0000 -0.2597 -3.4544 -44.8667 43.2407 -49.8769 -20.8846 -0.0000 0.0000 -67.1580 16.7771 -19.3728 -5.7109 -7.1250 0.0000 -0.0000 -7.4402 9.9482 6.0960 0.0000 0.0000 0.0000 13.1071 -16.7827 -50.2845 -43.8778 50.2067 -21.3730 0.0000 -0.0000 -59.6629 -9.5462 -28.6808 4.6144 7.1250 -0.0000 -0.0000 23.3446 -57.4334 -7.3773
